<svg width="20" height="22" viewBox="0 0 20 22" fill="none" xmlns="http://www.w3.org/2000/svg">
<path d="M16.0896 6.80525C16.0896 3.36496 13.3022 0.577568 9.86191 0.577568C6.42162 0.577568 3.63423 3.36496 3.63423 6.80525C3.63423 8.88449 4.65376 10.7277 6.22072 11.8577C6.21068 11.8627 6.20315 11.8652 6.19812 11.8677C5.07564 12.3424 4.06866 13.0229 3.20231 13.8917C2.34096 14.7515 1.65522 15.7708 1.18334 16.8926C0.719055 17.9911 0.468488 19.1681 0.445055 20.3605C0.444385 20.3873 0.449086 20.414 0.458881 20.4389C0.468676 20.4639 0.483368 20.4866 0.502089 20.5058C0.520811 20.525 0.543185 20.5402 0.567891 20.5506C0.592598 20.5611 0.619138 20.5664 0.645948 20.5664H2.15013C2.25811 20.5664 2.34851 20.4785 2.35103 20.3705C2.40125 18.4319 3.1772 16.6164 4.5508 15.2402C5.96961 13.8164 7.85298 13.0329 9.86191 13.0329C13.3022 13.0329 16.0896 10.2455 16.0896 6.80525ZM9.86191 11.1244C7.47631 11.1244 5.54271 9.19085 5.54271 6.80525C5.54271 4.41964 7.47631 2.48605 9.86191 2.48605C12.2475 2.48605 14.1811 4.41964 14.1811 6.80525C14.1811 9.19085 12.2475 11.1244 9.86191 11.1244ZM12.4986 16.6741H19.1281C19.2386 16.6741 19.329 16.5837 19.329 16.4732V15.067C19.329 14.9565 19.2386 14.8661 19.1281 14.8661H14.6959L15.8812 13.3569C15.9085 13.3216 15.9235 13.2784 15.9239 13.2338C15.9239 13.1233 15.8334 13.0329 15.723 13.0329H13.8999C13.7768 13.0329 13.6613 13.0907 13.5834 13.1861L11.8633 15.3733C11.7528 15.514 11.6925 15.6897 11.6925 15.8705C11.6951 16.315 12.0542 16.6741 12.4986 16.6741ZM18.5254 18.2812H11.8959C11.7855 18.2812 11.6951 18.3717 11.6951 18.4821V19.8884C11.6951 19.9989 11.7855 20.0893 11.8959 20.0893H16.3281L15.1429 21.5985C15.1155 21.6337 15.1005 21.677 15.1002 21.7215C15.1002 21.832 15.1906 21.9224 15.3011 21.9224H17.1242C17.2472 21.9224 17.3627 21.8647 17.4406 21.7693L19.1607 19.582C19.2712 19.4414 19.3315 19.2656 19.3315 19.0848C19.329 18.6403 18.9699 18.2812 18.5254 18.2812Z" fill="#FF6B72"/>
</svg>
